<?xml version="1.0" encoding="UTF-8" standalone="no"?>
<!-- Created with Inkscape (http://www.inkscape.org/) -->

<svg
   width="3169.9199mm"
   height="6213.5083mm"
   version="1.1"
   id="svg12"
   inkscape:version="1.2.1 (9c6d41e410, 2022-07-14)"
   sodipodi:docname="map.svg"
   viewBox="0 0 3169.9199 6213.5083"
   xmlns:inkscape="http://www.inkscape.org/namespaces/inkscape"
   xmlns:sodipodi="http://sodipodi.sourceforge.net/DTD/sodipodi-0.dtd"
   xmlns="http://www.w3.org/2000/svg"
   xmlns:svg="http://www.w3.org/2000/svg">
  <sodipodi:namedview
     id="namedview14"
     pagecolor="#ffffff"
     bordercolor="#000000"
     borderopacity="0.25"
     inkscape:showpageshadow="2"
     inkscape:pageopacity="0.0"
     inkscape:pagecheckerboard="0"
     inkscape:deskcolor="#d1d1d1"
     inkscape:document-units="mm"
     showgrid="true"
     inkscape:zoom="0.052959737"
     inkscape:cx="5107.6538"
     inkscape:cy="-9743.2508"
     inkscape:window-width="1920"
     inkscape:window-height="1046"
     inkscape:window-x="-11"
     inkscape:window-y="-11"
     inkscape:window-maximized="1"
     inkscape:current-layer="g49900"
     showguides="false" />
  <defs
     id="defs114042" />
  <g
     inkscape:label="Layer 1"
     inkscape:groupmode="layer"
     id="layer1">
    <g
       id="g37405">
      <g
         id="g49900">
        <path
           style="font-variation-settings:normal;opacity:1;fill:#ff0000;fill-opacity:0.381235;stroke:#000000;stroke-width:121.92;stroke-linecap:butt;stroke-linejoin:miter;stroke-miterlimit:4;stroke-dasharray:none;stroke-dashoffset:0;stroke-opacity:1;stop-color:#000000;stop-opacity:1"
           d="m 0,-3657.5924 c 0,-670.9088 543.8792,-1214.788 1214.788,-1214.788 h 618.4239 c 670.9089,0 1214.788,543.8792 1214.788,1214.788 V 0 H 0 Z"
           id="path10282"
           nom="Chemin_exterieur"
           sodipodi:nodetypes="ssssccs" />
        <path
           style="font-variation-settings:normal;opacity:1;vector-effect:none;fill:#ffff00;fill-opacity:0.513841;stroke:#000000;stroke-width:29.6;stroke-linecap:butt;stroke-linejoin:miter;stroke-miterlimit:4;stroke-dasharray:none;stroke-dashoffset:0;stroke-opacity:1;-inkscape-stroke:none;stop-color:#000000;stop-opacity:1"
           d="m 302.59409,-3657.5924 c 0.5752,-471.7084 381.30671,-909.988 912.19391,-909.988 h 616.2179 c 503.578,0 912.1941,407.4814 912.1941,909.988 l 7.2644,2440.2974 -919.4533,914.7048 H 1221.4015 L 299.6184,-1217.295 Z"
           id="path111135"
           nom="Chemin_RY"
           sodipodi:nodetypes="ssssccccs" />
        <path
           style="font-variation-settings:normal;fill:#00ff00;fill-opacity:0.381235;stroke:#000000;stroke-width:109.985;stroke-linecap:butt;stroke-linejoin:miter;stroke-miterlimit:4;stroke-dasharray:none;stroke-dashoffset:0;stroke-opacity:1;stop-color:#000000"
           d="m 605.1881,-1219.2 v -2438.3924 c 0,-335.4544 272.92721,-607.3939 609.5999,-607.394 l 616.218,1e-4 c 336.6726,0 609.5999,271.9395 609.5999,607.3939 V -1219.2 l -609.5948,611.8088 -609.6096,0.002 z"
           id="path11016-7"
           nom="Chemin_YG"
           sodipodi:nodetypes="csssscccc" />
        <path
           id="path10273"
           style="fill:#0000f2;fill-opacity:0.381235;stroke:#000000;stroke-width:111.252;stroke-dasharray:none;stroke-opacity:1"
           d="m 909.98041,-1219.2 0.01,-2438.3924 c 5e-4,-168.3364 136.46349,-304.8 304.79989,-304.8 l 618.4239,1e-4 c 168.3364,0 304.7999,136.4635 304.7999,304.7999 l -2.202,2438.3924 -304.7987,307.0089 -609.6096,0.002 z"
           nom="Chemin_BG"
           sodipodi:nodetypes="ccssccccc" />
        <path
           id="path55295-9-1-9-4-7"
           style="font-variation-settings:normal;fill:#8b4300;fill-opacity:1;stroke:#8b4300;stroke-width:28.484;stroke-linecap:butt;stroke-linejoin:miter;stroke-miterlimit:4;stroke-dasharray:none;stroke-dashoffset:0;stroke-opacity:1;stop-color:#000000"
           d="m 1221.4015,-1704.6799 609.6096,487.6878 h -609.6096 z"
           nom="Petit_mur"
           sodipodi:nodetypes="cccc" />
        <path
           id="path55295-9-1-9-4"
           style="font-variation-settings:normal;fill:#8b4300;fill-opacity:1;stroke:#8b4300;stroke-width:28.484;stroke-linecap:butt;stroke-linejoin:miter;stroke-miterlimit:4;stroke-dasharray:none;stroke-dashoffset:0;stroke-opacity:1;stop-color:#000000"
           d="m 1221.4015,-3655.3976 h 609.6045 v 1219.1977 l -609.6045,426.72 z"
           nom="Grand_Mur"
           sodipodi:nodetypes="ccccc" />
        <path
           id="path55295-9-1-9-4-8"
           style="font-variation-settings:normal;fill:#8b4300;fill-opacity:1;stroke:#8b4300;stroke-width:28.484;stroke-linecap:butt;stroke-linejoin:miter;stroke-miterlimit:4;stroke-dasharray:none;stroke-dashoffset:0;stroke-opacity:1;stop-color:#000000"
           d="m 2389.8024,-3655.3976 h 101.5926 v 2438.4074 h -101.5926 z"
           nom="2par4"
           sodipodi:nodetypes="ccccc" />
        <path
           id="path55295"
           style="font-variation-settings:normal;fill:none;fill-opacity:1;stroke:#ff0000;stroke-width:28.484;stroke-linecap:butt;stroke-linejoin:miter;stroke-miterlimit:4;stroke-dasharray:none;stroke-dashoffset:0;stroke-opacity:1;stop-color:#000000"
           d="m 144.666,-3656.1662 c 0,-590.7576 478.90601,-1069.6628 1069.6633,-1069.6628 h 618.4239 c 590.7573,0 1069.663,478.9056 1069.892,1069.663 l -152.1808,2438.871 -919.4533,914.7048 H 1221.4015 L 299.6184,-1217.295 144.666,-1816.1096 Z"
           nom="Chemin_rouge"
           sodipodi:nodetypes="sssccccccs" />
        <path
           id="path55295-9"
           style="font-variation-settings:normal;fill:none;fill-opacity:1;stroke:#ffff00;stroke-width:28.484;stroke-linecap:butt;stroke-linejoin:miter;stroke-miterlimit:4;stroke-dasharray:none;stroke-dashoffset:0;stroke-opacity:1;stop-color:#000000"
           d="m 452.016,-3656.1761 c 0,-432.7051 396.34211,-764.8537 764.8639,-764.8537 h 618.4239 c 364.7946,0 762.5422,311.9113 762.5422,764.8539 l 152.6184,2438.8809 -919.4533,914.7048 H 1221.4015 L 299.6184,-1217.295 452.016,-1812.2484 Z"
           nom="Chemin_jaune"
           sodipodi:nodetypes="sssccccccs" />
        <path
           id="path55295-9-1"
           style="font-variation-settings:normal;fill:none;fill-opacity:1;stroke:#00ff00;stroke-width:28.484;stroke-linecap:butt;stroke-linejoin:miter;stroke-miterlimit:4;stroke-dasharray:none;stroke-dashoffset:0;stroke-opacity:1;stop-color:#000000"
           d="m 756.815,-3656.1656 c 0,-258.074 216.22671,-460.0642 460.0636,-460.0642 h 618.4239 c 250.3315,0 457.7428,208.4406 457.7428,460.0642 l 0.229,2584.8323 -462.2632,463.9421 -609.6096,0.002 -613.9879,-609.6012 149.4014,-613.6663 z"
           nom="Chemin_vert"
           sodipodi:nodetypes="sssccccccs" />
        <path
           id="path55295-9-1-9"
           style="font-variation-settings:normal;fill:none;fill-opacity:1;stroke:#0000ff;stroke-width:28.484;stroke-linecap:butt;stroke-linejoin:miter;stroke-miterlimit:4;stroke-dasharray:none;stroke-dashoffset:0;stroke-opacity:1;stop-color:#000000"
           d="m 1061.621,-3656.1696 c 0,-91.2999 58.0106,-155.2572 155.2693,-155.2572 h 618.4239 c 96.6845,0 152.9369,59.8537 152.9369,155.2595 l 145.6697,2438.8723 -302.9097,305.1039 -609.6096,-2.7e-4 -309.49064,-305.10553 149.71014,-591.7669 z"
           nom="Chemin_bleu"
           sodipodi:nodetypes="sssccccccs" />
        <path
           id="path55295-9-1-9-6"
           style="font-variation-settings:normal;fill:none;fill-opacity:1;stroke:#8b00ff;stroke-width:28.484;stroke-linecap:butt;stroke-linejoin:miter;stroke-miterlimit:4;stroke-dasharray:none;stroke-dashoffset:0;stroke-opacity:1;stop-color:#000000"
           d="m 1061.621,-3656.1696 c 0,-91.2999 58.0106,-155.2572 155.2693,-155.2572 h 618.424 c 96.6845,0 152.9368,59.8537 152.9368,155.2595 l 0.8306,1463.8585 c -73.284,202.1247 -216.9012,312.0887 -426.7786,335.2289 h -463.5892 c -47.1108,0 -41.7321,-90.843 -37.0929,-142.7094 z"
           nom="Chemin_racourci"
           sodipodi:nodetypes="ssscccccs" />
        <path
           style="font-variation-settings:normal;opacity:1;vector-effect:none;fill:none;fill-opacity:1;stroke:#000000;stroke-width:29.6;stroke-linecap:butt;stroke-linejoin:miter;stroke-miterlimit:4;stroke-dasharray:none;stroke-dashoffset:0;stroke-opacity:1;-inkscape-stroke:none;stop-color:#000000;stop-opacity:1"
           d="m 0,-3657.5924 1221.4015,2.1948"
           id="path304"
           nom="Depart"
           sodipodi:nodetypes="cc" />
        <path
           style="fill:none;stroke:#000000;stroke-width:34.8;stroke-opacity:1;stroke-dasharray:34.79999924, 34.79999924;stroke-dashoffset:0"
           d="m 1221.4015,-2009.4799 v 304.8"
           id="path3988"
           nom="construction" />
      </g>
    </g>
  </g>
</svg>
